<?xml version="1.0" standalone="no"?>
<!DOCTYPE svg PUBLIC "-//W3C//DTD SVG 20010904//EN"
 "http://www.w3.org/TR/2001/REC-SVG-20010904/DTD/svg10.dtd">
<svg version="1.0" xmlns="http://www.w3.org/2000/svg"
 width="480.000000pt" height="283.000000pt" viewBox="0 0 480.000000 283.000000"
 preserveAspectRatio="xMidYMid meet">

<g transform="translate(0.000000,283.000000) scale(0.100000,-0.100000)"
fill="#000000" stroke="none">
<path d="M729 2523 c-13 -16 -12 -17 4 -4 9 7 17 15 17 17 0 8 -8 3 -21 -13z"/>
<path d="M1250 2517 c0 -2 15 -16 33 -33 l32 -29 -29 33 c-28 30 -36 37 -36
29z"/>
<path d="M923 2381 c-39 -25 -53 -49 -53 -96 0 -105 111 -159 194 -94 51 40
52 131 2 178 -35 33 -101 38 -143 12z m140 -31 c50 -56 29 -140 -42 -170 -63
-26 -141 31 -141 103 0 39 16 64 53 88 44 27 93 19 130 -21z"/>
<path d="M950 2341 c0 -11 -3 -26 -6 -35 -4 -12 0 -16 15 -16 23 0 26 -15 11
-57 -9 -23 -3 -19 34 22 43 49 44 50 20 55 -18 4 -21 8 -14 20 16 25 12 30
-25 30 -28 0 -35 -4 -35 -19z"/>
<path d="M660 1315 l0 -805 330 0 330 0 -1 188 c0 103 -4 176 -8 162 -15 -48
-40 -87 -79 -122 -131 -119 -333 -74 -410 91 -15 33 -22 222 -22 608 0 19 -6
22 -42 25 l-43 3 -3 100 c-4 155 -13 145 128 145 l121 0 -3 -122 -3 -123 -37
-3 -38 -3 0 -290 c0 -271 1 -292 20 -329 52 -102 191 -128 281 -53 53 45 62
75 69 233 6 148 12 170 57 227 17 21 18 53 15 448 l-2 425 -330 0 -330 0 0
-805z m600 580 l0 -145 -272 2 -273 3 -3 129 c-1 72 0 136 2 143 4 10 63 13
276 13 l270 0 0 -145z m-2 -313 l3 -123 -123 3 -123 3 -3 109 c-1 61 0 116 2
123 4 11 32 13 123 11 l118 -3 3 -123z"/>
<path d="M2458 1873 c23 -2 61 -2 85 0 23 2 4 4 -43 4 -47 0 -66 -2 -42 -4z"/>
<path d="M2928 1873 c17 -2 47 -2 65 0 17 2 3 4 -33 4 -36 0 -50 -2 -32 -4z"/>
<path d="M2243 1863 c15 -2 39 -2 55 0 15 2 2 4 -28 4 -30 0 -43 -2 -27 -4z"/>
<path d="M3093 1863 c9 -2 23 -2 30 0 6 3 -1 5 -18 5 -16 0 -22 -2 -12 -5z"/>
<path d="M2148 1853 c6 -2 18 -2 25 0 6 3 1 5 -13 5 -14 0 -19 -2 -12 -5z"/>
<path d="M3168 1853 c6 -2 18 -2 25 0 6 3 1 5 -13 5 -14 0 -19 -2 -12 -5z"/>
<path d="M2190 1836 c0 -2 8 -10 18 -17 15 -13 16 -12 3 4 -13 16 -21 21 -21
13z"/>
<path d="M3250 1836 c0 -2 7 -7 16 -10 8 -3 12 -2 9 4 -6 10 -25 14 -25 6z"/>
<path d="M3315 1795 c18 -16 23 -24 12 -21 -10 3 -101 11 -203 18 -145 9 -255
9 -506 -1 -176 -6 -333 -14 -347 -17 l-27 -6 18 -76 c60 -250 96 -340 133
-326 7 3 103 1 212 -5 361 -19 701 -24 858 -12 154 12 258 30 278 50 7 7 19 5
42 -9 30 -19 31 -19 31 0 0 13 -4 16 -12 9 -8 -6 -82 53 -245 197 -129 113
-243 210 -254 216 -12 6 -8 -1 10 -17z"/>
<path d="M1995 1795 c-84 -23 -161 -54 -177 -73 -16 -18 -101 -213 -95 -218 1
-2 43 -18 92 -37 82 -31 123 -38 110 -17 -6 10 49 184 89 280 19 44 33 80 33
79 -1 0 -24 -6 -52 -14z"/>
<path d="M2053 1743 c-29 -64 -93 -253 -93 -273 0 -5 12 -2 28 6 62 32 134 12
144 -41 2 -14 12 -21 36 -23 25 -3 33 -9 38 -29 5 -18 2 -30 -9 -38 -14 -10
-11 -13 20 -23 20 -6 39 -9 41 -7 10 9 -54 303 -89 411 -14 45 -26 64 -45 73
-14 6 -29 11 -33 11 -5 0 -22 -30 -38 -67z"/>
<path d="M780 1645 c-29 -31 -32 -85 -5 -115 23 -26 30 -19 30 33 0 41 1 42
35 42 35 0 35 -1 40 -49 l5 -48 20 21 c47 53 6 141 -65 141 -26 0 -43 -7 -60
-25z"/>
<path d="M1629 1453 c-13 -16 -12 -17 4 -4 16 13 21 21 13 21 -2 0 -10 -8 -17
-17z"/>
<path d="M1369 1213 c-13 -16 -12 -17 4 -4 16 13 21 21 13 21 -2 0 -10 -8 -17
-17z"/>
<path d="M4030 1226 c0 -2 8 -10 18 -17 15 -13 16 -12 3 4 -13 16 -21 21 -21
13z"/>
<path d="M4085 1180 c10 -11 20 -20 23 -20 3 0 -3 9 -13 20 -10 11 -20 20 -23
20 -3 0 3 -9 13 -20z"/>
<path d="M1534 1132 c-8 -4 -14 -55 -17 -132 -4 -95 -3 -111 4 -66 9 59 31
106 49 106 37 0 64 -131 58 -277 -10 -212 -78 -251 -107 -62 l-10 64 4 -60 c5
-71 30 -158 50 -178 26 -27 159 -32 236 -11 18 5 34 38 44 91 5 24 10 31 23
26 15 -4 15 -3 2 6 -8 6 -26 11 -40 11 -64 1 -64 1 -125 188 -62 190 -97 273
-123 294 -15 11 -15 11 -4 -4 11 -14 10 -17 -6 -22 -11 -4 -24 -16 -30 -29
l-11 -22 0 23 c-1 13 4 32 9 43 12 21 11 22 -6 11z"/>
<path d="M2280 986 c0 -2 8 -10 18 -17 15 -13 16 -12 3 4 -13 16 -21 21 -21
13z"/>
<path d="M2238 938 c-20 -15 -48 -78 -48 -107 0 -11 -4 -21 -10 -23 -9 -3 -16
-281 -7 -308 3 -8 8 -34 11 -58 10 -68 47 -170 72 -197 22 -24 27 -25 151 -25
151 0 162 5 192 85 26 68 26 65 -2 65 -50 0 -76 47 -146 265 -28 88 -68 194
-88 235 -36 70 -40 75 -73 78 -19 2 -43 -3 -52 -10z m72 -100 c35 -59 52 -166
48 -306 -3 -108 -7 -134 -26 -174 -44 -90 -96 -54 -128 89 -24 107 -16 310 13
376 28 60 62 65 93 15z"/>
<path d="M1900 620 c8 -5 20 -10 25 -10 6 0 3 5 -5 10 -8 5 -19 10 -25 10 -5
0 -3 -5 5 -10z"/>
<path d="M4277 590 c-14 -63 -59 -133 -92 -142 -44 -12 -242 -38 -292 -38 -49
0 -55 -13 -22 -53 49 -64 214 -74 326 -21 53 26 98 147 91 246 l-3 43 -8 -35z"/>
<path d="M1950 600 c8 -5 20 -10 25 -10 6 0 3 5 -5 10 -8 5 -19 10 -25 10 -5
0 -3 -5 5 -10z"/>
<path d="M2000 580 c8 -5 20 -10 25 -10 6 0 3 5 -5 10 -8 5 -19 10 -25 10 -5
0 -3 -5 5 -10z"/>
<path d="M2070 550 c8 -5 20 -10 25 -10 6 0 3 5 -5 10 -8 5 -19 10 -25 10 -5
0 -3 -5 5 -10z"/>
<path d="M2120 530 c8 -5 20 -10 25 -10 6 0 3 5 -5 10 -8 5 -19 10 -25 10 -5
0 -3 -5 5 -10z"/>
<path d="M1338 503 c7 -3 16 -2 19 1 4 3 -2 6 -13 5 -11 0 -14 -3 -6 -6z"/>
<path d="M519 483 c-13 -16 -12 -17 4 -4 9 7 17 15 17 17 0 8 -8 3 -21 -13z"/>
</g>
</svg>
